<svg id="finish" xmlns="http://www.w3.org/2000/svg" viewBox="0 0 192 192"><defs><style>.cls-1{fill:none;}.cls-2{fill:#fff;}</style></defs><g id="Portfolio"><path class="cls-1" d="M104.68,94.23H138.8v34.12H104.68Z"/><path class="cls-2" d="M133.12,102.76h-5.69V99.91a2.83,2.83,0,0,0-2.85-2.84H118.9a2.83,2.83,0,0,0-2.85,2.84v2.85h-5.69a2.82,2.82,0,0,0-2.83,2.84v15.64a2.84,2.84,0,0,0,2.84,2.85h22.76a2.84,2.84,0,0,0,2.84-2.85V105.6A2.83,2.83,0,0,0,133.12,102.76Zm-8.54,0H118.9V99.91h5.68Z"/></g><g id="Walking_Man" data-name="Walking Man"><circle class="cls-2" cx="95.31" cy="59.47" r="9.53"/><path class="cls-2" d="M102.72,82.3h0q-1.5,5.63-3,11.24l4.08,4.25L117,101.71a4.48,4.48,0,0,0,3.75-.77,4.15,4.15,0,0,0,1.53-2.81,4.33,4.33,0,0,0-1.21-3.22,5.15,5.15,0,0,0-2-1.37c-3.53-1.44-9.64-3.22-10.3-3.41l-5.43-7.4"/><path class="cls-2" d="M84.06,73.86s-1.62-.22-8.17,4.44L69.33,83,65,85.6l-7.66,17.2s-.93,4,2.47,5.27,5.41-.51,7.51-7.06l3.33-8.18L80.82,87.3l-4.17,20s-.08,6.3,3.24,8l9.82,10.56,4.3,18.8s.77,5.88,6.39,4.94c0,0,5.44-.72,4.17-7.3l-4.34-20-8.34-13.64,6.64-26.11s0-9.12-7.22-8.7C91.31,73.85,85.57,73.43,84.06,73.86Z"/><path class="cls-2" d="M75.31,116.92,73.5,127l-11.66,14.9s-1.57,4.51,1.47,6.72c0,0,3.51,3.66,8-1.28l11-13.9,2-7.54Z"/></g></svg>